**ABCDEFGHIJKLMNOPQRSTUVWXYZabcdefghijklmnopqrstuvwxyz**************************
**PARASOLID !"#$%&'()*+,-./:;<=>?@[\]^_`{|}~0123456789**************************
**PART1;
MC=AMD64;
MC_MODEL=Intel64 Family 6 Model 140 Stepping 1, GenuineIntel;
MC_ID=unknown;
OS=Windows_NT;
OS_RELEASE=unknown;
FRU=Parasolid Version 32.1, build 255,  1- 1-2021;
APPL=SOLIDWORKS 2021-2021166;
SITE=;
USER=unknown;
FORMAT=text;
GUISE=transmit;
KEY=makeProjectedPlanarWire;
FILE=makeProjectedPlanarWire.x_t;
DATE=Tue Apr 18 16:15:27 2023;
**PART2;
SCH=SCH_3201255_32001;
USFLD_SIZE=0;
**PART3;
**END_OF_HEADER*****************************************************************
T51 : TRANSMIT FILE created by modeller version 320125523 SCH_3201255_32001_1300
6229 0 12 34 CCCCCCI4 mesh1006 0 I8 polyline1008 0 CCCCCCCDI5 owner1040 0 CCCCCC
I13 boundary_mesh1006 0 I17 boundary_polyline1008 0 CCCA16 index_map_offset0 0 1
 dA9 index_map82 0 A17 node_id_index_map82 0 A20 schema_embedding_map82 0 A5 chi
ld12 0 A14 lowest_node_id0 0 1 dA16 mesh_offset_data206 0 Z1 414 0 0 0 0 0 0 0 0
 1e3 1e-8 0 2 0 1 0 3 1 3 4 5 6 0 0 7 8 9 0 0 0 0 0 0 0 13 255 3 26 0 1 0 10 0 0
 7 10 50 255 4 3 0 10 0 0 0 +0 .0055 -533526982889409e-33 0 1 -970049059798925e-
31 0 970049059798925e-31 1 31 255 5 19 0 8 11 0 0 +0 .0055 -144706692222164e-32
 0 1 -970049059798925e-31 0 970049059798925e-31 1 .004 29 255 6 414 0 9 12 0 .00
3328151540240585 .0055 .0001109383846746846 19 8 CCCCCCCA5 owner12 0 Z7 25 0 1 0
 0 3 V0 16 255 8 17 0 ?13 0 14 5 0 0 1 18 255 9 338 0 15 0 16 6 ?1 17 255 15 0 0
 0 0 9 17 18 0 19 -18 16 261 0 20 9 21 12 ?1 17 20 0 0 0 0 16 19 22 0 23 -18 21
 184 0 24 16 25 26 ?1 29 12 337 0 16 26 6 .003328151540240585 .0055 -.0001109383
846746876 29 26 260 0 21 27 12 -.003328151540240585 .0055 -.0001109383846746876
 29 27 183 0 25 0 26 -.003328151540240585 .0055 .0001109383846746846 18 25 182 0
 17 21 0 27 ?1 17 17 0 28 29 19 25 15 18 0 30 +15 255 28 7 0 29 10 31 17 29 0 28
 23 17 21 30 14 0 0 +17 19 0 28 17 23 9 20 22 0 0 +16 18 339 0 ?17 22 0 11 22 14
 1 17 30 0 0 0 0 25 29 14 0 0 -16 14 9 0 ?29 8 32 11 18 32 1 16 32 185 0 ?23 14
 22 11 14 22 1 31 11 11 0 14 0 5 0 -0 .0055 -144706692222164e-32 0 1 -9700490597
98925e-31 0 970049059798925e-31 1 .00333 17 23 0 28 19 29 16 24 32 0 0 +16 22 26
2 0 ?19 32 18 11 32 18 1 17 24 0 0 0 0 21 23 32 0 29 -14 255 10 1 0 ?0 0 28 3 4
 +0 0 0 0 3 15 31 8 0 13 10 0 17 13 0 31 13 13 0 33 8 0 0 +17 33 0 0 0 0 0 13 8
 0 0 -1 0 
